<svg xmlns="http://www.w3.org/2000/svg" xmlns:vectornator="http://vectornator.io" xml:space="preserve" width="1508" height="1054pt" stroke-linecap="round" stroke-linejoin="round" stroke-miterlimit="10" clip-rule="evenodd" viewBox="0 0 1131 1054">
  <clipPath id="a">
    <path d="M0 0h1131v1054H0z"/>
  </clipPath>
  <g vectornator:layerName="Layer 1" clip-path="url(#a)">
    <g vectornator:layerName="Group 1">
      <path vectornator:layerName="Curve 12" fill="#eee" stroke="#eee" stroke-linecap="butt" stroke-width="10" d="M-29.7999-37.8381-1.34357 1072.72 1181.52 1087.27l10.14-1190.043L-29.7999-37.8381Z"/>
      <path vectornator:layerName="Curve 9" fill="#cdeab0" stroke="#cdeab0" stroke-linecap="butt" stroke-width="10" d="m48.7324-3.71664-5.7864 2.7128-9.9678.90219-2.5735 22.79325 10.4858 5.1832 3.3547 16.2716-7.2737 9.0721-1.6275 11.2121-16.9208 21.1607-21.35579-.2792-.61047-88.61463 52.27546-.41411Z"/>
      <path vectornator:layerName="Curve 14" fill="#ffffe5" stroke="#ffffe5" stroke-linecap="butt" stroke-linejoin="miter" stroke-width="10" d="m55.276 1050.28 313.372-104.858L708.227 798.9l260.917-143.217 177.766-137.831 13.72 215.235-733.653 326.103-371.701-8.91Z"/>
      <path vectornator:layerName="Curve 17" fill="#cdeab0" stroke="#cdeab0" stroke-linecap="butt" stroke-linejoin="miter" stroke-width="10" d="m1012.65-6.33396 37.74-5.91134 12.6 43.2538 1.2 9.9288-51.54-47.27126Z"/>
      <path vectornator:layerName="Curve 2" fill="#acd19e" stroke="#acd19e" stroke-linecap="butt" stroke-linejoin="miter" stroke-width="10" d="m1061.06.644643 12.81 31.145657-2.02 24.5522 54.43 46.8715.72-102.21107-65.94-.358287Z"/>
      <path vectornator:layerName="Curve 16" fill="#ffffe5" stroke="#ffffe5" stroke-linecap="butt" stroke-width="10" d="M829.707-22.3563 1133.91 279.295l2.51-151.819L982.012-29.0042l-152.305 6.6479Z"/>
      <path vectornator:layerName="Curve 1" fill="#acd19e" stroke="#acd19e" stroke-linecap="butt" stroke-linejoin="miter" stroke-width="10" d="m462.718 1050.28 668.112-294.131v324.831l-668.112-30.7Z"/>
      <path vectornator:layerName="Curve 5" fill="#cdeab0" stroke="#cdeab0" stroke-linecap="butt" stroke-width="10" d="m910.287 648.208 29.363-19.634 212.93-176.691-13.16-112.282L816.539 8.73516 282.835 103.214l-18.963 21.567L284.08 231.97l626.207 416.238Z"/>
      <path vectornator:layerName="Curve 8" fill="#cdeab0" stroke="#cdeab0" stroke-linecap="butt" stroke-width="10" d="m70.2663 80.0931 17.8776-34.7808 6.1389-4.0453 7.8382 2.1281 26.786 27.3702 2.103 7.8375-6.996 3.5457-43.9821 7.7797-8.9287-1.026-.8369-8.8091Z"/>
      <path vectornator:layerName="Curve 10" fill="#cdeab0" stroke="#cdeab0" stroke-linecap="butt" stroke-width="10" d="M157.881-5.85059 142.767 12.4951l28.925 28.4422 49.82 15.3866-3.375-27.0993 24.022-7.3203 9.886 33.1454 173.99-31.4003.597-31.8288-268.751 2.32881Z"/>
      <path vectornator:layerName="Curve 11" fill="#cdeab0" stroke="#cdeab0" stroke-linecap="butt" stroke-width="10" d="m454.069-8.1794-.156 25.7882L586.846-6.54448 454.069-8.1794Z"/>
      <path vectornator:layerName="Curve 13" fill="#d9d0c9" stroke="#b2a79f" stroke-linecap="butt" stroke-linejoin="miter" stroke-width="5" d="M3.17031 863.201 126.644 841.816l-8.472-57.008 69.031-11.865-7.996-42.541-16.216 2.847-8.13-25.355-12.094 2.511-38.104-198.743 18.339-4.94-51.1165-276.681-25.742 3.507-14.245-80.983-46.256 9.151L3.89917 446.525 31.742 603.829l-20.6241 3.869 13.998 74.062 53.8376-10.6 8.2697 47.5-89.91275 15.896 5.85986 128.645Z"/>
      <path vectornator:layerName="Curve 15" fill="#d9d9d9" stroke="#768596" stroke-linecap="butt" stroke-width="5" d="M833.671-26.9011 1141.69 279.295l10.89-73.89L916.845-34.1213l-83.174 7.2202Z"/>
      <path vectornator:layerName="Curve 18" fill="#d9d9d9" stroke="#768596" stroke-linecap="butt" stroke-width="5" d="M1147.53 651.033 854.092 833.385 586.846 962.871 312.38 1071.99l-181.37-12.35 295.622-120.331-29.554-100.096 32.616-12.445 33.024 97.927 151.1-61.494-16.417-75.133 36.78-11.502 17.9 69.587 160.027-80.941-18.642-41.075 28.745-20.099 23.491 40.325 290.718-201.222 11.11 107.892Z"/>
      <text vectornator:layerName="Text 1" vectornator:width="194.033" fill="#000002" font-family="Helvetica-LightOblique" font-size="24.9455" transform="rotate(-99.04656 268.1885712 254.9334548)">
<tspan x="6.22735" y="24" textLength="181.579"><![CDATA[Stimson College
]]>


</tspan>
</text>
    </g>
    <g vectornator:layerName="Lot" fill="#d9d9d9" stroke-linecap="butt" stroke-width="5">
      <path vectornator:layerName="Curve 4" stroke="#768596" d="m327.326 851.812 69.787-14.591 80.474-26.68 113.484-19.542 198.634-50.423 41.705-23.351 98.435-74.003-52.056-304.309 3.437-48.189-34.489-40.59-27.394-31.116-57.992-64.592-212.16 51.543-196.833-53.22-52.387 93.536-48.308 9.67 15.324 65.758-51.365 11.949 111.704 518.15Z"/>
      <path vectornator:layerName="Rectangle 1" stroke="#d9d9d9" stroke-linejoin="miter" d="m400.968 835.265 23.779-7.773 1.982 6.063-23.779 7.773-1.982-6.063Z"/>
      <path vectornator:layerName="Rectangle 2" stroke="#d9d9d9" stroke-linejoin="miter" d="m601.653 784.455 27.849-6.479 1.849 7.948-27.848 6.479-1.85-7.948Z"/>
      <path vectornator:layerName="Rectangle 3" stroke="#d9d9d9" stroke-linejoin="miter" d="m800.452 727.89 9.985-4.63 13.537-6.708 5.499 10.26-23.84 12.072-5.181-10.994Z"/>
    </g>
    <g vectornator:layerName="Parking spots" fill="#c4ccd6" stroke-linecap="butt">
      <path vectornator:layerName="Spot90" stroke="#fff" d="m862.151 615.112 58.131-9.696 5.141 30.132-58.131 9.697-5.141-30.133Z"/>
      <path vectornator:layerName="Spot89" stroke="#fff" d="m857.118 585.843 57.963-9.959 5.13 29.22-57.962 9.959-5.131-29.22Z"/>
      <path vectornator:layerName="Spot88" stroke="#fff" d="m852.024 555.793 58.012-9.767 5.155 29.951-58.012 9.767-5.155-29.951Z"/>
      <path vectornator:layerName="Spot87" stroke="#fff" d="m847.012 526.478 58.117-9.659 4.985 29.246-58.117 9.66-4.985-29.247Z"/>
      <path vectornator:layerName="Spot86" stroke="#fff" d="m841.936 497.01 58.117-9.659 4.985 29.247-58.117 9.659-4.985-29.247Z"/>
      <path vectornator:layerName="Spot85" stroke="#fff" d="m836.839 466.855 58.13-9.697 5.142 30.133-58.131 9.697-5.141-30.133Z"/>
      <path vectornator:layerName="Spot84" stroke="#fff" d="m831.806 437.586 57.963-9.959 5.13 29.22-57.963 9.959-5.13-29.22Z"/>
      <path vectornator:layerName="Spot83" stroke="#fff" d="m826.712 407.536 58.012-9.768 5.154 29.951-58.012 9.768-5.154-29.951Z"/>
      <path vectornator:layerName="Spot82" stroke="#fff" d="m821.7 378.221 58.117-9.66 4.985 29.247-58.117 9.659-4.985-29.246Z"/>
      <path vectornator:layerName="Spot81" stroke="#fff" d="m816.928 349.898 57.984-10.576 4.923 29.396-58.161 9.792-4.746-28.612Z"/>
      <path vectornator:layerName="Spot80" stroke="#fff" d="m878.038 291.693-48.434 42.472-20.402-23.77 49.023-41.863 19.813 23.161Z"/>
      <path vectornator:layerName="Spot79" stroke="#fff" d="m858.356 268.808-49.052 41.719-20.379-23.599 49.052-41.72 20.379 23.6Z"/>
      <path vectornator:layerName="Spot78" stroke="#fff" d="m837.916 245.162-48.897 41.757-20.915-24.139L817 221.022l20.916 24.14Z"/>
      <path vectornator:layerName="Spot77" stroke="#fff" d="m743.104 162.158 15.647 64.791-31.691 7.592-14.803-65.045 30.847-7.338Z"/>
      <path vectornator:layerName="Spot76" stroke="#fff" d="m712.574 169.505 14.656 65.005-31.523 7.652-14.656-65.004 31.523-7.653Z"/>
      <path vectornator:layerName="Spot75" stroke="#fff" d="m680.978 177.192 14.767 64.879-32.278 7.893-14.767-64.879 32.278-7.893Z"/>
      <path vectornator:layerName="Spot74" stroke="#fff" d="m648.587 185.024 14.973 64.809-31.484 7.815-14.972-64.81 31.483-7.814Z"/>
      <path vectornator:layerName="Spot73" stroke="#fff" d="m617.044 192.731 14.698 65.018-32.478 7.89-14.698-65.018 32.478-7.89Z"/>
      <path vectornator:layerName="Spot72" stroke="#fff" d="m584.539 200.573 14.656 65.005-31.523 7.653-14.656-65.005 31.523-7.653Z"/>
      <path vectornator:layerName="Spot71" stroke="#fff" d="m660.303 340.831 57.557-12.713 5.997 29.266-57.764 11.932-5.79-28.485Z"/>
      <path vectornator:layerName="Spot70" stroke="#fff" d="m666.109 369.026 57.724-11.799 6.053 29.113-57.724 11.799-6.053-29.113Z"/>
      <path vectornator:layerName="Spot69" stroke="#fff" d="m672.191 398.207 57.615-11.904 6.249 29.813-57.616 11.903-6.248-29.812Z"/>
      <path vectornator:layerName="Spot68" stroke="#fff" d="m681.612 444.984 57.736-11.837 6.242 29.996-57.737 11.836-6.241-29.995Z"/>
      <path vectornator:layerName="Spot67" stroke="#fff" d="m687.81 475.003 57.724-11.798 6.053 29.113-57.724 11.799-6.053-29.114Z"/>
      <path vectornator:layerName="Spot66" stroke="#fff" d="m693.962 504.335 57.724-11.799 6.053 29.113-57.724 11.799-6.053-29.113Z"/>
      <path vectornator:layerName="Spot65" stroke="#fff" d="m700.044 533.516 57.615-11.904 6.249 29.813-57.616 11.903-6.248-29.812Z"/>
      <path vectornator:layerName="Spot64" stroke="#fff" d="m706.235 563.429 57.559-12.093 6.197 29.081-57.559 12.094-6.197-29.082Z"/>
      <path vectornator:layerName="Spot63" stroke="#fff" d="m712.336 592.563 57.737-11.836 6.241 29.995-57.736 11.837-6.242-29.996Z"/>
      <path vectornator:layerName="Spot62" stroke="#fff" d="m782.41 638.583-57.629 11.735-6.032-27.807 57.63-11.735 6.031 27.807Z"/>
      <path vectornator:layerName="Spot61" stroke="#fff" d="m791.874 682.977-57.465 12.016-6.175-27.776 57.465-12.015 6.175 27.775Z"/>
      <path vectornator:layerName="Spot60" stroke="#fff" d="m798.043 711.549-57.521 11.834-6.226-28.474 57.521-11.834 6.226 28.474Z"/>
      <path vectornator:layerName="Spot59" stroke="#fff" d="m741.798 729.374-57.521 11.811-6.224-28.407 57.522-11.812 6.223 28.408Z"/>
      <path vectornator:layerName="Spot58" stroke="#fff" d="m735.632 700.869-57.466 11.992-6.173-27.71 57.466-11.992 6.173 27.71Z"/>
      <path vectornator:layerName="Spot57" stroke="#fff" d="m729.554 673.108-57.642 11.749-6.217-28.583 57.643-11.748 6.216 28.582Z"/>
      <path vectornator:layerName="Spot56" stroke="#fff" d="m723.381 644.503-57.631 11.712-6.029-27.742 57.631-11.712 6.029 27.742Z"/>
      <path vectornator:layerName="Spot55" stroke="#fff" d="m653.311 598.596 57.738-11.814 6.238 29.925-57.737 11.814-6.239-29.925Z"/>
      <path vectornator:layerName="Spot54" stroke="#fff" d="m647.212 569.53 57.56-12.07 6.195 29.013-57.56 12.07-6.195-29.013Z"/>
      <path vectornator:layerName="Spot53" stroke="#fff" d="m641.023 539.686 57.617-11.88 6.245 29.742-57.616 11.881-6.246-29.743Z"/>
      <path vectornator:layerName="Spot52" stroke="#fff" d="m634.944 510.574 57.725-11.776 6.051 29.045-57.726 11.776-6.05-29.045Z"/>
      <path vectornator:layerName="Spot51" stroke="#fff" d="m628.795 481.311 57.725-11.776 6.05 29.045-57.725 11.776-6.05-29.045Z"/>
      <path vectornator:layerName="Spot50" stroke="#fff" d="m622.599 451.362 57.738-11.814 6.238 29.925-57.737 11.814-6.239-29.925Z"/>
      <path vectornator:layerName="Spot49" stroke="#fff" d="m616.5 422.297 57.56-12.071 6.195 29.014-57.56 12.07-6.195-29.013Z"/>
      <path vectornator:layerName="Spot48" stroke="#fff" d="m610.311 392.453 57.617-11.881 6.245 29.743-57.616 11.88-6.246-29.742Z"/>
      <path vectornator:layerName="Spot47" stroke="#fff" d="m604.232 363.34 57.725-11.776 6.05 29.045-57.725 11.776-6.05-29.045Z"/>
      <path vectornator:layerName="Spot46" stroke="#fff" d="m598.429 335.211 57.558-12.688 5.994 29.197-57.765 11.91-5.787-28.419Z"/>
      <path vectornator:layerName="Spot45" stroke="#fff" d="m445.422 347.416 57.452-13.18 6.234 29.216-57.665 12.401-6.021-28.437Z"/>
      <path vectornator:layerName="Spot44" stroke="#fff" d="m451.456 375.562 57.627-12.266 6.289 29.063-57.627 12.267-6.289-29.064Z"/>
      <path vectornator:layerName="Spot43" stroke="#fff" d="m457.775 404.693 57.517-12.371 6.49 29.761-57.517 12.371-6.49-29.761Z"/>
      <path vectornator:layerName="Spot42" stroke="#fff" d="m464.209 434.556 57.459-12.56 6.433 29.03-57.459 12.56-6.433-29.03Z"/>
      <path vectornator:layerName="Spot41" stroke="#fff" d="m470.546 463.639 57.639-12.305 6.485 29.944-57.639 12.305-6.485-29.944Z"/>
      <path vectornator:layerName="Spot40" stroke="#fff" d="m476.988 493.607 57.627-12.267 6.289 29.064-57.627 12.266-6.289-29.063Z"/>
      <path vectornator:layerName="Spot39" stroke="#fff" d="m483.378 522.888 57.626-12.267 6.29 29.063-57.627 12.267-6.289-29.063Z"/>
      <path vectornator:layerName="Spot38" stroke="#fff" d="m489.697 552.018 57.517-12.37 6.49 29.76-57.518 12.371-6.489-29.761Z"/>
      <path vectornator:layerName="Spot37" stroke="#fff" d="m496.13 581.881 57.46-12.56 6.432 29.03-57.459 12.56-6.433-29.03Z"/>
      <path vectornator:layerName="Spot36" stroke="#fff" d="m502.468 610.964 57.639-12.305 6.484 29.944-57.638 12.305-6.485-29.944Z"/>
      <path vectornator:layerName="Spot35" stroke="#fff" d="m572.913 656.414-57.532 12.202-6.257-27.757 57.532-12.202 6.257 27.757Z"/>
      <path vectornator:layerName="Spot34" stroke="#fff" d="m579.322 685.036-57.545 12.238-6.451-28.598 57.544-12.238 6.452 28.598Z"/>
      <path vectornator:layerName="Spot33" stroke="#fff" d="m585.627 712.812-57.365 12.481-6.401-27.724 57.366-12.482 6.4 27.725Z"/>
      <path vectornator:layerName="Spot32" stroke="#fff" d="m592.028 741.333-57.423 12.3-6.457-28.423 57.423-12.3 6.457 28.423Z"/>
      <path vectornator:layerName="Spot31" stroke="#fff" d="m598.315 769.154-57.533 12.202-6.257-27.757 57.532-12.202 6.258 27.757Z"/>
      <path vectornator:layerName="Spot30" stroke="#fff" d="m541.086 781.315-57.533 12.179-6.254-27.692 57.533-12.179 6.254 27.692Z"/>
      <path vectornator:layerName="Spot29" stroke="#fff" d="m534.802 753.559-57.424 12.277-6.453-28.356 57.424-12.278 6.453 28.357Z"/>
      <path vectornator:layerName="Spot28" stroke="#fff" d="m528.404 725.105-57.366 12.458-6.397-27.659 57.366-12.459 6.397 27.66Z"/>
      <path vectornator:layerName="Spot27" stroke="#fff" d="m522.102 697.394-57.545 12.216-6.449-28.531 57.546-12.216 6.448 28.531Z"/>
      <path vectornator:layerName="Spot26" stroke="#fff" d="m515.697 668.839-57.534 12.18-6.254-27.692 57.533-12.18 6.255 27.692Z"/>
      <path vectornator:layerName="Spot25" stroke="#fff" d="m445.256 623.503 57.64-12.283 6.482 29.874-57.64 12.282-6.482-29.873Z"/>
      <path vectornator:layerName="Spot24" stroke="#fff" d="m438.922 594.487 57.46-12.537 6.43 28.962-57.46 12.537-6.43-28.962Z"/>
      <path vectornator:layerName="Spot23" stroke="#fff" d="m432.491 564.695 57.518-12.348 6.487 29.691-57.518 12.348-6.487-29.691Z"/>
      <path vectornator:layerName="Spot22" stroke="#fff" d="m426.175 535.633 57.628-12.245 6.286 28.995-57.628 12.245-6.286-28.995Z"/>
      <path vectornator:layerName="Spot21" stroke="#fff" d="m419.789 506.421 57.628-12.244 6.286 28.995-57.628 12.244-6.286-28.995Z"/>
      <path vectornator:layerName="Spot20" stroke="#fff" d="m413.35 476.523 57.64-12.282 6.482 29.873-57.64 12.283-6.482-29.874Z"/>
      <path vectornator:layerName="Spot19" stroke="#fff" d="m407.016 447.508 57.46-12.537 6.43 28.962-57.46 12.537-6.43-28.962Z"/>
      <path vectornator:layerName="Spot18" stroke="#fff" d="m400.585 417.715 57.518-12.347 6.487 29.691-57.518 12.347-6.487-29.691Z"/>
      <path vectornator:layerName="Spot17" stroke="#fff" d="m394.269 388.653 57.628-12.244 6.286 28.995-57.628 12.244-6.286-28.995Z"/>
      <path vectornator:layerName="Spot16" stroke="#fff" d="m388.238 360.572 57.453-13.154 6.231 29.147-57.666 12.378-6.018-28.371Z"/>
      <path vectornator:layerName="Spot15" stroke="#85d4ff" d="m219.539 336.269 57.267-13.817 6.426 30.38-57.484 13.008-6.209-29.571Z"/>
      <path vectornator:layerName="Spot14" stroke="#85d4ff" d="m231.765 395.016 57.337-12.976 6.685 30.947-57.336 12.976-6.686-30.947Z"/>
      <path vectornator:layerName="Spot13" stroke="#fff" d="m238.9 426.882 57.277-13.173 6.624 30.186-57.277 13.174-6.624-30.187Z"/>
      <path vectornator:layerName="Spot12" stroke="#fff" d="m245.429 457.125 57.459-12.909 6.681 31.137-57.459 12.908-6.681-31.136Z"/>
      <path vectornator:layerName="Spot11" stroke="#fff" d="m252.068 488.287 57.447-12.869 6.48 30.222-57.447 12.868-6.48-30.221Z"/>
      <path vectornator:layerName="Spot10" stroke="#fff" d="m258.65 518.734 57.447-12.869 6.481 30.222-57.447 12.868-6.481-30.221Z"/>
      <path vectornator:layerName="Spot9" stroke="#fff" d="m265.161 549.025 57.337-12.976 6.685 30.947-57.337 12.976-6.685-30.947Z"/>
      <path vectornator:layerName="Spot8" stroke="#fff" d="m271.791 580.078 57.278-13.173 6.624 30.186-57.278 13.173-6.624-30.186Z"/>
      <path vectornator:layerName="Spot7" stroke="#fff" d="m278.32 610.32 57.459-12.908 6.682 31.137-57.459 12.908-6.682-31.137Z"/>
      <path vectornator:layerName="Spot6" stroke="#fff" d="m285.11 641.351 57.277-13.174 6.624 30.187-57.278 13.173-6.623-30.186Z"/>
      <path vectornator:layerName="Spot5" stroke="#fff" d="m291.638 671.593 57.459-12.908 6.682 31.137-57.459 12.908-6.682-31.137Z"/>
      <path vectornator:layerName="Spot4" stroke="#fff" d="m361.951 718.732-57.469 12.235-6.179-28.923 57.469-12.236 6.179 28.924Z"/>
      <path vectornator:layerName="Spot3" stroke="#fff" d="m368.279 748.555-57.481 12.274-6.371-29.8 57.481-12.273 6.371 29.799Z"/>
      <path vectornator:layerName="Spot2" stroke="#85d4ff" d="m374.645 778.347-57.303 12.527-6.322-28.89 57.302-12.527 6.323 28.89Z"/>
      <path vectornator:layerName="Spot1" stroke="#85d4ff" d="m387.036 836.208-57.469 12.236-6.179-28.924 57.469-12.235 6.179 28.923Z"/>
    </g>
    <g vectornator:layerName="NoParkingLines" fill="none">
      <g vectornator:layerName="Group 9" stroke="#85d4ff" stroke-linecap="butt">
        <path vectornator:layerName="Rectangle 1" d="m225.707 365.818 57.574-12.823 5.991 29.198-57.609 12.879-5.956-29.254Z"/>
        <path vectornator:layerName="Line 1" d="m256.51 389.72-26.144-24.617"/>
        <path vectornator:layerName="Line 5" d="m246.651 391.783-19.453-18.699"/>
        <path vectornator:layerName="Line 6" d="m238.376 393.507-8.778-9.324"/>
        <path vectornator:layerName="Line 4" d="m288.486 381.704-24.764-24.131"/>
        <path vectornator:layerName="Line 7" d="m285.963 365.717-11.354-10.772"/>
        <path vectornator:layerName="Line 3" d="m277.601 384.931-25.426-24.944"/>
        <path vectornator:layerName="Line 2" d="m266.847 386.927-25.098-24.678"/>
      </g>
      <g vectornator:layerName="Group 10" stroke="#85d4ff" stroke-linecap="butt">
        <path vectornator:layerName="Rectangle 1" d="m317.341 790.842 57.306-12.49 6.233 29.079-57.502 12.019-6.037-28.608Z"/>
        <path vectornator:layerName="Line 1" d="m348.421 814.384-26.429-24.311"/>
        <path vectornator:layerName="Line 5" d="m338.586 816.562-19.669-18.472"/>
        <path vectornator:layerName="Line 6" d="m330.162 818.062-8.998-9.071"/>
        <path vectornator:layerName="Line 4" d="m380.353 806.756-24.86-24.129"/>
        <path vectornator:layerName="Line 7" d="m377.148 789.936-10.535-9.703"/>
        <path vectornator:layerName="Line 3" d="m369.925 809.717-26.185-25.014"/>
        <path vectornator:layerName="Line 2" d="m359.139 811.933-25.798-24.846"/>
      </g>
      <g vectornator:layerName="Group 8">
        <path vectornator:layerName="Curve 1" stroke="#ffe68e" stroke-linecap="butt" stroke-width="2" d="m269.558 319.75 50.11-11.953 68.456 49.776 138.992-31.967 18.655-118.283"/>
        <path vectornator:layerName="Line 1" stroke="#ffe68e" stroke-linecap="square" stroke-width="2" d="m257.394 270.475 57.801 37.798"/>
        <path vectornator:layerName="Line 15" stroke="#ffe68e" stroke-linecap="square" stroke-width="2" d="m259.717 287.692 38.979 24.895"/>
        <path vectornator:layerName="Line 8" stroke="#ffe68e" stroke-linecap="square" stroke-width="2" d="m259.737 256.312 147.436 96.504"/>
        <path vectornator:layerName="Line 2" stroke="#ffe68e" stroke-linecap="butt" stroke-width="2" d="m306.645 238.256 157.004 101.927"/>
        <path vectornator:layerName="Line 9" stroke="#ffe68e" stroke-linecap="butt" stroke-width="2" d="m312.54 228.528 173.335 106.681"/>
        <path vectornator:layerName="Line 3" stroke="#ffe68e" stroke-linecap="butt" stroke-width="2" d="M321.804 217.694 504.772 330.58"/>
        <path vectornator:layerName="Line 10" stroke="#ffe68e" stroke-linecap="butt" stroke-width="2" d="m328.437 203.36 196.84 122.504"/>
        <path vectornator:layerName="Line 4" stroke="#ffe68e" stroke-linecap="butt" stroke-width="2" d="m336.684 191.01 192 120.592"/>
        <path vectornator:layerName="Line 11" stroke="#ffe68e" stroke-linecap="butt" stroke-width="2" d="m341.672 176.294 190.949 120.2"/>
        <path vectornator:layerName="Line 5" stroke="#ffe68e" stroke-linecap="butt" stroke-width="2" d="m350.61 164.561 183.55 116.262"/>
        <path vectornator:layerName="Line 12" stroke="#ffe68e" stroke-linecap="butt" stroke-width="2" d="m363.648 155.051 173.725 108.897"/>
        <path vectornator:layerName="Line 6" stroke="#ffe68e" stroke-linecap="butt" stroke-width="2" d="m428.644 175.779 111.58 70.171"/>
        <path vectornator:layerName="Line 13" stroke="#ffe68e" stroke-linecap="butt" stroke-width="2" d="m474.608 184.319 68.569 43.781"/>
        <path vectornator:layerName="Line 7" stroke="#ffe68e" stroke-linecap="butt" stroke-width="2" d="m281.514 252.494 143.92 96.265"/>
        <path vectornator:layerName="Line 14" stroke="#ffe68e" stroke-linecap="butt" stroke-width="2" d="m297.561 247.153 146.631 97.076"/>
        <path vectornator:layerName="Curve 6" stroke="#768596" stroke-linecap="butt" stroke-width="5" d="m265.661 316.305-13.486-60.391 47.947-9.681 52.241-93.484 197.8 53.36"/>
      </g>
      <g vectornator:layerName="Group 11" stroke="#fff" stroke-linecap="butt">
        <path vectornator:layerName="Rectangle 1" d="m724.649 650.307 57.792-11.707 3.271 16.56-57.399 12.021-3.664-16.874Z"/>
        <path vectornator:layerName="Line 1" d="m738.445 665.228-12.621-9.546"/>
        <path vectornator:layerName="Line 2" d="m746.042 663.334-19.283-13.36"/>
        <path vectornator:layerName="Line 3" d="m752.921 661.881-19.704-13.401"/>
        <path vectornator:layerName="Line 4" d="m760.027 660.455-19.681-13.33"/>
        <path vectornator:layerName="Line 5" d="m768.104 658.895-20.024-13.203"/>
        <path vectornator:layerName="Line 6" d="m775.378 657.109-19.636-13.068"/>
        <path vectornator:layerName="Line 7" d="m783.026 655.565-19.844-13.204"/>
        <path vectornator:layerName="Line 8" d="m731.626 666.565-4.147-3.26"/>
        <path vectornator:layerName="Line 9" d="m784.782 650.742-14.207-9.871"/>
        <path vectornator:layerName="Line 10" d="m783.457 644.3-6.871-4.567"/>
      </g>
      <g vectornator:layerName="Group 12" stroke="#fff" stroke-linecap="butt">
        <path vectornator:layerName="Rectangle 1" d="m678.189 427.909 57.792-11.707 3.27 16.56-57.399 12.021-3.663-16.874Z"/>
        <path vectornator:layerName="Line 1" d="m691.985 442.83-12.621-9.546"/>
        <path vectornator:layerName="Line 2" d="m699.581 440.937-19.282-13.361"/>
        <path vectornator:layerName="Line 3" d="m706.461 439.483-19.704-13.401"/>
        <path vectornator:layerName="Line 4" d="m713.567 438.057-19.681-13.33"/>
        <path vectornator:layerName="Line 5" d="m721.643 436.497-20.023-13.203"/>
        <path vectornator:layerName="Line 6" d="m728.917 434.711-19.635-13.068"/>
        <path vectornator:layerName="Line 7" d="m736.566 433.167-19.844-13.204"/>
        <path vectornator:layerName="Line 8" d="m685.166 444.167-4.147-3.26"/>
        <path vectornator:layerName="Line 9" d="m738.322 428.344-14.207-9.871"/>
        <path vectornator:layerName="Line 10" d="m736.997 421.902-6.871-4.567"/>
      </g>
      <g vectornator:layerName="Group 13" stroke="#ffe68e" stroke-linecap="butt">
        <path vectornator:layerName="Rectangle 1" d="m483.5 793.494 114.815-24.284 3.376 15.707-10.679 2.904-105.028 17.688-2.484-12.015Z"/>
        <g vectornator:layerName="Group 1">
          <path vectornator:layerName="Line 1" d="m489.376 792.292-4.706 7.247"/>
          <path vectornator:layerName="Line 2" d="m495.902 790.734-9.34 14.775"/>
          <path vectornator:layerName="Line 3" d="m503.619 789.343-9.462 14.801"/>
          <path vectornator:layerName="Line 4" d="m511.719 787.36-9.738 15.584"/>
          <path vectornator:layerName="Line 5" d="m509.969 801.473 9.664-15.657"/>
          <path vectornator:layerName="Line 6" d="m527.396 784.307-9.335 15.845"/>
          <path vectornator:layerName="Line 14" d="m535.421 782.524-9.528 16.132"/>
          <path vectornator:layerName="Line 15" d="m543.436 780.718-9.594 16.548"/>
          <path vectornator:layerName="Line 7" d="m551.281 779.15-9.263 16.765"/>
          <path vectornator:layerName="Line 8" d="m559.247 777.493-9.584 17.306"/>
          <path vectornator:layerName="Line 9" d="m567.42 775.639-9.999 17.855"/>
          <path vectornator:layerName="Line 10" d="m575.71 774.097-9.773 18.133"/>
          <path vectornator:layerName="Line 11" d="m584.113 772.346-10.16 18.388"/>
          <path vectornator:layerName="Line 12" d="m591.93 770.706-10.296 18.637"/>
          <path vectornator:layerName="Line 13" d="m598.871 771.66-9.578 16.442"/>
          <path vectornator:layerName="Line 16" d="m600.661 779.881-3.449 6.265"/>
        </g>
      </g>
      <g vectornator:layerName="Group 14" stroke="#fff" stroke-linecap="butt">
        <path vectornator:layerName="Line 1" d="m717.944 328.138-62.061-5.686"/>
        <path vectornator:layerName="Line 2" d="m659.76 340.645 14.014-16.4"/>
        <path vectornator:layerName="Line 3" d="m658.054 333.182 7.926-9.797"/>
        <path vectornator:layerName="Line 4" d="m668.522 339.017 13.003-14.107"/>
        <path vectornator:layerName="Line 5" d="m677.575 336.966 10.945-11.671"/>
        <path vectornator:layerName="Line 6" d="m685.825 335.142 8.768-9.193"/>
        <path vectornator:layerName="Line 7" d="m693.552 333.535 6.778-6.949"/>
        <path vectornator:layerName="Line 8" d="m700.884 331.964 4.438-4.84"/>
        <path vectornator:layerName="Line 9" d="m707.559 330.546 2.719-3.063"/>
        <path vectornator:layerName="Line 10" d="m656.89 327.124 3.279-4.428"/>
      </g>
      <g vectornator:layerName="Group 15" stroke="#fff" stroke-linecap="butt">
        <path vectornator:layerName="Line 1" d="m743.087 162.158 25.017 100.557"/>
        <path vectornator:layerName="Line 2" d="m764.114 247.036 17.021 4.373"/>
        <path vectornator:layerName="Line 3" d="m761.39 235.392 29.54 7.8"/>
        <path vectornator:layerName="Line 4" d="m757.756 221.022 44.449 12.511"/>
        <path vectornator:layerName="Line 5" d="m754.54 208.033 58.265 16.649"/>
        <path vectornator:layerName="Line 6" d="m750.809 193.643 59.998 17.993"/>
        <path vectornator:layerName="Line 7" d="m747.295 179.062 46.947 14.581"/>
        <path vectornator:layerName="Line 8" d="m743.087 162.158 29.337 9.78"/>
      </g>
      <g vectornator:layerName="Group 16" stroke-linecap="butt">
        <path vectornator:layerName="Line 2" stroke="#fff" d="m878.038 291.595-62.371 54.877"/>
        <path vectornator:layerName="Curve 5" stroke="#768596" stroke-width="5" d="m744.04 158.586 17.03-3.923 60.068 66.376"/>
        <path vectornator:layerName="Line 3" stroke="#fff" d="m815.82 345.955.993 4.004"/>
        <path vectornator:layerName="Line 5" stroke="#fff" d="m816.316 346.472 8.094 2.1"/>
        <path vectornator:layerName="Line 6" stroke="#fff" d="m822.309 340.941 17.795 4.78"/>
        <path vectornator:layerName="Line 7" stroke="#fff" d="m831.207 332.495 30.12 9.292"/>
        <path vectornator:layerName="Line 8" stroke="#fff" d="m841.308 324.031 35.185 11.667"/>
        <path vectornator:layerName="Line 9" stroke="#fff" d="m851.379 315.19 26.659 8.841"/>
        <path vectornator:layerName="Line 10" stroke="#fff" d="m859.262 307.957 18.776 6.101"/>
        <path vectornator:layerName="Line 11" stroke="#fff" d="m866.515 301.82 11.523 3.701"/>
        <path vectornator:layerName="Line 12" stroke="#fff" d="m873.324 295.808 5.733 1.655"/>
        <path vectornator:layerName="Line 13" stroke="#768596" stroke-width="5" d="m881.063 292.395-3.29 46.385"/>
      </g>
      <g vectornator:layerName="Group 2" stroke="#ffe68e" stroke-linecap="butt">
        <path vectornator:layerName="Line 1" d="m692.026 740.701-5.689 8.979"/>
        <path vectornator:layerName="Line 2" d="m698.609 739.259-10.819 17.264"/>
        <path vectornator:layerName="Line 3" d="m706.748 737.555-15.221 24.597"/>
        <path vectornator:layerName="Line 4" d="m714.865 736.014-14.543 23.729"/>
        <path vectornator:layerName="Line 5" d="m709.505 757.286 14.283-23.193"/>
        <path vectornator:layerName="Line 6" d="m733.234 732.094-13.525 22.826"/>
        <path vectornator:layerName="Line 14" d="m742.915 730.153-13.117 22.063"/>
        <path vectornator:layerName="Line 7" d="m756.639 721.119-15.238 28.023"/>
        <path vectornator:layerName="Line 8" d="m768.104 718.883-15.117 27.29"/>
        <path vectornator:layerName="Line 9" d="m780.652 716.101-14.622 26.882"/>
        <path vectornator:layerName="Line 11" d="m792.477 713.545-14.531 26.408"/>
        <path vectornator:layerName="Line 12" d="m799.305 718.883-9.568 17.409"/>
      </g>
      <g vectornator:layerName="Group 17" stroke-linecap="butt">
        <path vectornator:layerName="Rectangle 1" stroke="#ffe68e" stroke-linejoin="miter" d="m684.632 742.14 58.233-12.066-1.189-5.909 56.367-11.668 3.156 17.825-13.315 7.095-98.717 25.197-4.535-20.474Z"/>
        <path vectornator:layerName="Line 1" stroke="#ffe68e" stroke-linejoin="miter" d="m926.22 636.469-59.098 9.833"/>
        <path vectornator:layerName="Line 2" stroke="#ffe68e" stroke-linejoin="miter" d="m867.627 646.302 7.019 36.436"/>
        <path vectornator:layerName="Line 3" stroke="#ffe68e" stroke-linejoin="miter" d="m874.646 645.012-5.581 8.08"/>
        <path vectornator:layerName="Line 4" stroke="#ffe68e" stroke-linejoin="miter" d="m883.597 643.592-12.735 19.142"/>
        <path vectornator:layerName="Line 5" stroke="#ffe68e" stroke-linejoin="miter" d="m894.947 641.72-22.156 31.711"/>
        <path vectornator:layerName="Line 6" stroke="#ffe68e" stroke-linejoin="miter" d="m906.325 639.911-26.859 39.436"/>
        <path vectornator:layerName="Line 7" stroke="#ffe68e" stroke-linejoin="miter" d="m917.078 638.097-17.463 26.423"/>
        <path vectornator:layerName="Line 8" stroke="#ffe68e" stroke-linejoin="miter" d="m925.775 636.469-8.697 14.839"/>
        <path vectornator:layerName="Line 9" stroke="#768596" stroke-width="5" d="m925.423 646.611-6.941 5.002-44.316 33.469"/>
      </g>
    </g>
  </g>
</svg>
